<?xml version="1.0" encoding="UTF-8"?>
<!DOCTYPE svg PUBLIC "-//W3C//DTD SVG 1.1//EN" "http://www.w3.org/Graphics/SVG/1.1/DTD/svg11.dtd">
<!-- Creator: CorelDRAW 2019 (64-Bit) -->
<svg xmlns="http://www.w3.org/2000/svg" xml:space="preserve" width="8.909in" height="2.61in" version="1.1" style="shape-rendering:geometricPrecision; text-rendering:geometricPrecision; image-rendering:optimizeQuality; fill-rule:evenodd; clip-rule:evenodd"
viewBox="0 0 8909 2610"
 xmlns:xlink="http://www.w3.org/1999/xlink"
 xmlns:xodm="http://www.corel.com/coreldraw/odm/2003">
 <defs>
  <style type="text/css">
   <![CDATA[
    .str0 {stroke:#373435;stroke-width:29.52;stroke-miterlimit:2.61313}
    .fil6 {fill:none;fill-rule:nonzero}
    .fil0 {fill:#FEFEFE}
    .fil4 {fill:#606062}
    .fil2 {fill:#939598}
    .fil1 {fill:#F49121}
    .fil5 {fill:#F49121}
    .fil3 {fill:#F58634}
    .fil7 {fill:#373435;fill-rule:nonzero}
    .fil8 {fill:#FF8026;fill-rule:nonzero}
   ]]>
  </style>
 </defs>
 <g id="Layer_x0020_1">
  <metadata id="CorelCorpID_0Corel-Layer"/>
  <ellipse class="fil0" cx="1456.9" cy="1317.63" rx="1118.75" ry="1133.33"/>
  <path class="fil1" d="M716.22 284.17c-319.72,226.4 -528.47,599.2 -528.47,1020.76 0,690.43 559.58,1250.15 1250.01,1250.15 268.87,0 517.71,-84.94 721.68,-229.25l-102.29 -144.6c-174.96,123.82 -388.65,196.64 -619.39,196.64 -592.48,0 -1072.8,-480.32 -1072.8,-1072.95 0,-361.74 179.15,-681.75 453.56,-876.15l-102.29 -144.61 -0 0.01z"/>
  <path class="fil2" d="M716.22 284.17l102.29 144.6c174.96,-123.82 388.65,-196.64 619.24,-196.64 592.63,0 1072.95,480.32 1072.95,1072.8 0,361.89 -179.15,681.91 -453.56,876.31l102.28 144.61c319.72,-226.4 528.47,-599.21 528.47,-1020.91 0,-690.28 -559.73,-1250 -1250.15,-1250 -268.72,0 -517.71,84.79 -721.53,229.25z"/>
  <path class="fil3" d="M1207.46 1675.34c37.98,4.19 80.75,0 113.95,0 49.94,0 78.35,0 75.97,48.9 -120.98,0 -227.9,-8.07 -223.11,134.29 7.18,122.18 137.72,118.13 254.07,109.91l2.39 -97.65c-49.95,-4.04 -116.34,8.22 -154.33,-8.07l-2.39 -36.64c47.41,-12.26 109.17,-4.19 161.35,-4.19 18.99,36.64 40.38,105.87 54.73,146.55l99.59 0c-7.03,-56.97 -78.35,-244.2 -99.59,-293.09 -42.77,-109.91 -140.12,-109.91 -280.24,-101.69l-2.39 101.69 0 -0.01z"/>
  <path class="fil4" d="M1295.39 1313.15c80.75,-142.51 251.68,-158.81 424.85,-268.72 118.73,-73.28 275.45,-219.83 301.62,-407.05 -21.38,12.26 -7.18,0 -23.78,20.34 -7.18,8.22 -11.96,16.3 -21.38,24.52 -16.6,20.34 -26.17,24.38 -42.77,40.67 -246.89,256.46 -586.34,354.11 -619.54,435.46 -9.57,24.52 -21.38,122.17 -18.99,154.77l-0.01 0.01z"/>
  <path class="fil3" d="M1625.28 1972.62l94.96 -4.19 4.79 -117.99c30.96,28.56 23.78,48.9 99.75,85.54 40.38,20.34 97.35,36.64 154.32,32.45l0 -93.61c-73.57,-12.11 -235.07,-44.71 -161.5,-134.29 28.56,-32.6 151.93,-138.48 159.11,-166.89 -187.52,-20.34 -142.51,77.31 -251.68,130.25l-2.39 -130.25 -94.96 0 -2.39 398.97z"/>
  <path class="fil3" d="M853.8 1870.78l0 97.65c121.13,0 213.69,16.3 268.27,-77.31 30.8,-56.97 28.41,-248.24 18.99,-317.47l-92.56 0c-7.18,73.28 4.79,170.93 -2.39,236.12 -11.81,81.35 -106.78,61.02 -192.31,61.02l0.01 -0.01z"/>
  <path class="fil4" d="M1266.23 1429.64l37.08 -96c0,0 -17.35,-28.41 85.09,-58.92 102.43,-30.5 425.29,-150.44 551.8,-268.27 0,0 -113.5,261.69 -438.45,316.28 0,0 -224.61,45.76 -235.53,106.92l0.01 0z"/>
  <path class="fil4" d="M1261.9 1486.32c0,0 37.08,-63.26 91.67,-78.51 54.43,-15.25 292.2,-26.17 405.55,-109.01 0,0 -122.02,150.44 -281.29,157.02 -159.26,6.43 -220.27,28.26 -215.93,30.5z"/>
  <polygon class="fil5" points="3061.61,443.72 3150.62,443.72 3150.62,2166.28 3061.61,2166.28 "/>
  <g>
   <path class="fil6 str0" d="M3544.13 1101.31c-36.04,0 -69.23,-7.47 -99.44,-22.28 -30.21,-14.95 -54.88,-36.04 -74.17,-63.55l68.49 -90.77c14.8,21.24 30.21,37.38 46.51,48.3 16.15,10.91 33.65,16.45 52.49,16.45 50.24,0 75.37,-32.6 75.37,-97.65l0 -279.94 -187.37 0 0 -109.31 310 0 0 381.77c0,72.83 -16.3,127.26 -48.75,163.15 -32.45,35.89 -80.15,53.83 -143.11,53.83l0 0.01zm232.24 -10.17l237.47 -588.59 121.87 0 238.37 588.59 -129.5 0 -194.85 -519.65 48.75 0 -195.75 519.65 -126.36 0zm118.73 -126.06l32.75 -103.48 274.11 0 33.5 103.48 -340.35 0zm644.96 -8.52l-6.88 -157.17 254.96 -296.84 137.13 0 -230 273.21 -68.49 80.75 -86.73 100.05zm-110.51 134.58l0 -588.59 122.62 0 0 588.59 -122.62 0zm364.73 0l-189.62 -256.46 80.75 -96.75 252.87 353.22 -144 0 0 -0.01zm-1091.05 860.23c-42.17,0 -80.9,-7.48 -116.19,-22.28 -35.29,-14.96 -65.95,-36.04 -92.12,-63.56 -26.02,-27.52 -46.36,-59.67 -60.86,-96.75 -14.51,-36.94 -21.68,-77.61 -21.68,-121.87 0,-44.26 7.18,-84.94 21.68,-122.02 14.51,-36.94 34.85,-69.23 61.31,-96.6 26.31,-27.52 57.27,-48.75 92.86,-63.56 35.59,-14.8 74.62,-22.28 117.24,-22.28 47.25,0 89.72,8.67 127.56,26.02 37.83,17.5 69.69,42.62 95.56,75.67l-79.26 80.75c-19.14,-22.43 -40.22,-39.03 -63.11,-49.94 -22.88,-10.91 -47.7,-16.45 -74.62,-16.45 -25.87,0 -49.5,4.49 -70.88,13.46 -21.24,8.98 -39.63,21.83 -55.18,38.73 -15.4,16.75 -27.36,36.64 -35.74,59.67 -8.37,23.03 -12.56,48.45 -12.56,76.56 0,27.52 4.19,52.64 12.56,75.67 8.37,23.03 20.33,43.07 35.74,60.11 15.56,17.05 33.8,30.21 54.88,39.18 21.08,8.82 44.26,13.31 69.69,13.31 24.37,0 48,-4.33 71.18,-13.01 23.03,-8.67 45.46,-23.33 67.3,-44.11l70.13 98.4c-29.01,24.08 -62.65,42.62 -100.94,55.48 -38.29,12.86 -76.56,19.44 -114.55,19.44l-0 -0.01zm102.73 -92.57l0 -221.17 112.76 0 0 238.81 -112.76 -17.65zm340.35 -269.17l256.61 0 0 106.02 -256.61 0 0 -106.02zm9.12 242.26l290.11 0 0 109.31 -412.59 0 0 -588.74 402.71 0 0 109.46 -280.24 0 0 369.96 0 0zm388.35 109.31l0 -588.74 101.98 0 314.48 423.94 -49.5 0 0 -423.94 121.87 0 0 588.74 -101.24 0 -315.23 -423.8 49.5 0 0 423.8 -121.87 0zm728.71 -351.57l256.61 0 0 106.02 -256.61 0 0 -106.02zm9.12 242.26l290.11 0 0 109.31 -412.73 0 0 -588.74 402.86 0 0 109.46 -280.24 0 0 369.96zm388.36 109.31l0 -588.74 230.74 0c47.71,0 88.83,8.67 123.22,25.72 34.54,17.05 61.16,41.57 80,73.57 18.84,32 28.26,70.14 28.26,114.4 0,43.67 -9.42,81.35 -28.26,113.06 -18.84,31.7 -45.46,55.93 -80,72.83 -34.4,16.75 -75.52,25.12 -123.22,25.12l-162.25 0 54.88 -59.67 0 223.71 -123.37 0 0 -0.01zm338.85 0l-133.24 -213.54 131.59 0 134.89 213.54 -133.24 0 0 0zm-215.48 -208.61l-54.88 -63.85 155.37 0c37.98,0 66.39,-9.12 85.24,-27.36 18.84,-18.24 28.12,-43.22 28.12,-75.22 0,-32.6 -9.28,-57.72 -28.12,-75.67 -18.84,-17.94 -47.25,-26.92 -85.24,-26.92l-155.37 0 54.88 -64.75 0 333.78 0 -0.01zm366.22 208.61l237.47 -588.74 121.87 0 238.37 588.74 -129.5 0 -194.85 -519.65 48.75 0 -195.75 519.65 -126.36 0zm118.73 -126.06l32.75 -103.48 274.11 0 33.5 103.48 -340.35 0zm618.35 126.06l0 -477.63 -170.63 0 0 -111.11 464.47 0 0 111.11 -170.63 0 0 477.63 -123.22 0 0 0zm360.09 0l0 -588.74 123.37 0 0 588.74 -123.37 0zm508.59 10.17c-42.17,0 -81.05,-7.63 -116.79,-22.73 -35.89,-15.26 -66.84,-36.49 -93.01,-64 -26.02,-27.36 -46.36,-59.67 -60.86,-96.6 -14.51,-37.09 -21.69,-77.46 -21.69,-121.13 0,-43.81 7.18,-84.19 21.69,-121.13 14.51,-36.94 34.84,-69.24 61.31,-96.75 26.32,-27.37 57.42,-48.76 92.87,-63.85 35.59,-15.1 74.17,-22.73 115.74,-22.73 42.17,0 80.91,7.63 116.19,22.73 35.15,15.1 65.95,36.48 92.12,63.85 26.02,27.52 46.51,59.67 61.16,96.3 14.8,36.78 22.13,77.31 22.13,121.57 0,43.67 -7.33,84.19 -22.13,121.43 -14.65,37.38 -35.14,69.54 -61.16,96.75 -26.17,27.22 -56.97,48.3 -92.12,63.56 -35.29,15.1 -73.87,22.73 -115.44,22.73l-0.01 0zm-0.75 -116.19c23.93,0 45.76,-4.49 65.8,-13.31 20.19,-8.98 37.69,-21.98 52.94,-38.73 15.26,-16.9 27.07,-36.78 35.44,-59.81 8.37,-22.88 12.56,-48.45 12.56,-76.42 0,-28.11 -4.19,-53.53 -12.56,-76.56 -8.37,-23.03 -20.04,-42.92 -34.99,-59.67 -14.95,-16.9 -32.59,-29.76 -52.94,-38.73 -20.34,-8.97 -42.32,-13.46 -66.25,-13.46 -23.93,0 -45.76,4.49 -65.8,13.46 -20.04,8.98 -37.69,21.83 -52.94,38.73 -15.25,16.75 -27.07,36.64 -35.44,59.67 -8.37,23.03 -12.56,48.45 -12.56,76.56 0,27.52 4.19,52.79 12.56,76.12 8.37,23.18 20.04,43.22 34.99,60.11 14.95,16.75 32.6,29.76 52.94,38.73 20.34,8.82 42.32,13.31 66.25,13.31zm384.47 106.02l0 -588.74 102.14 0 314.48 423.94 -49.5 0 0 -423.94 121.73 0 0 588.74 -101.24 0 -315.23 -423.8 49.5 0 0 423.8 -121.88 0 -0 0z"/>
   <path id="1" class="fil7" d="M3544.13 1101.31c-36.04,0 -69.23,-7.47 -99.44,-22.28 -30.21,-14.95 -54.88,-36.04 -74.17,-63.55l68.49 -90.77c14.8,21.24 30.21,37.38 46.51,48.3 16.15,10.91 33.65,16.45 52.49,16.45 50.24,0 75.37,-32.6 75.37,-97.65l0 -279.94 -187.37 0 0 -109.31 310 0 0 381.77c0,72.83 -16.3,127.26 -48.75,163.15 -32.45,35.89 -80.15,53.83 -143.11,53.83l0 0.01zm232.24 -10.17l237.47 -588.59 121.87 0 238.37 588.59 -129.5 0 -194.85 -519.65 48.75 0 -195.75 519.65 -126.36 0zm118.73 -126.06l32.75 -103.48 274.11 0 33.5 103.48 -340.35 0zm644.96 -8.52l-6.88 -157.17 254.96 -296.84 137.13 0 -230 273.21 -68.49 80.75 -86.73 100.05zm-110.51 134.58l0 -588.59 122.62 0 0 588.59 -122.62 0zm364.73 0l-189.62 -256.46 80.75 -96.75 252.87 353.22 -144 0 0 -0.01zm-1091.05 860.23c-42.17,0 -80.9,-7.48 -116.19,-22.28 -35.29,-14.96 -65.95,-36.04 -92.12,-63.56 -26.02,-27.52 -46.36,-59.67 -60.86,-96.75 -14.51,-36.94 -21.68,-77.61 -21.68,-121.87 0,-44.26 7.18,-84.94 21.68,-122.02 14.51,-36.94 34.85,-69.23 61.31,-96.6 26.31,-27.52 57.27,-48.75 92.86,-63.56 35.59,-14.8 74.62,-22.28 117.24,-22.28 47.25,0 89.72,8.67 127.56,26.02 37.83,17.5 69.69,42.62 95.56,75.67l-79.26 80.75c-19.14,-22.43 -40.22,-39.03 -63.11,-49.94 -22.88,-10.91 -47.7,-16.45 -74.62,-16.45 -25.87,0 -49.5,4.49 -70.88,13.46 -21.24,8.98 -39.63,21.83 -55.18,38.73 -15.4,16.75 -27.36,36.64 -35.74,59.67 -8.37,23.03 -12.56,48.45 -12.56,76.56 0,27.52 4.19,52.64 12.56,75.67 8.37,23.03 20.33,43.07 35.74,60.11 15.56,17.05 33.8,30.21 54.88,39.18 21.08,8.82 44.26,13.31 69.69,13.31 24.37,0 48,-4.33 71.18,-13.01 23.03,-8.67 45.46,-23.33 67.3,-44.11l70.13 98.4c-29.01,24.08 -62.65,42.62 -100.94,55.48 -38.29,12.86 -76.56,19.44 -114.55,19.44l-0 -0.01zm102.73 -92.57l0 -221.17 112.76 0 0 238.81 -112.76 -17.65zm340.35 -269.17l256.61 0 0 106.02 -256.61 0 0 -106.02zm9.12 242.26l290.11 0 0 109.31 -412.59 0 0 -588.74 402.71 0 0 109.46 -280.24 0 0 369.96 0 0zm388.35 109.31l0 -588.74 101.98 0 314.48 423.94 -49.5 0 0 -423.94 121.87 0 0 588.74 -101.24 0 -315.23 -423.8 49.5 0 0 423.8 -121.87 0zm728.71 -351.57l256.61 0 0 106.02 -256.61 0 0 -106.02zm9.12 242.26l290.11 0 0 109.31 -412.73 0 0 -588.74 402.86 0 0 109.46 -280.24 0 0 369.96zm388.36 109.31l0 -588.74 230.74 0c47.71,0 88.83,8.67 123.22,25.72 34.54,17.05 61.16,41.57 80,73.57 18.84,32 28.26,70.14 28.26,114.4 0,43.67 -9.42,81.35 -28.26,113.06 -18.84,31.7 -45.46,55.93 -80,72.83 -34.4,16.75 -75.52,25.12 -123.22,25.12l-162.25 0 54.88 -59.67 0 223.71 -123.37 0 0 -0.01zm338.85 0l-133.24 -213.54 131.59 0 134.89 213.54 -133.24 0 0 0zm-215.48 -208.61l-54.88 -63.85 155.37 0c37.98,0 66.39,-9.12 85.24,-27.36 18.84,-18.24 28.12,-43.22 28.12,-75.22 0,-32.6 -9.28,-57.72 -28.12,-75.67 -18.84,-17.94 -47.25,-26.92 -85.24,-26.92l-155.37 0 54.88 -64.75 0 333.78 0 -0.01zm366.22 208.61l237.47 -588.74 121.87 0 238.37 588.74 -129.5 0 -194.85 -519.65 48.75 0 -195.75 519.65 -126.36 0zm118.73 -126.06l32.75 -103.48 274.11 0 33.5 103.48 -340.35 0zm618.35 126.06l0 -477.63 -170.63 0 0 -111.11 464.47 0 0 111.11 -170.63 0 0 477.63 -123.22 0 0 0zm360.09 0l0 -588.74 123.37 0 0 588.74 -123.37 0zm508.59 10.17c-42.17,0 -81.05,-7.63 -116.79,-22.73 -35.89,-15.26 -66.84,-36.49 -93.01,-64 -26.02,-27.36 -46.36,-59.67 -60.86,-96.6 -14.51,-37.09 -21.69,-77.46 -21.69,-121.13 0,-43.81 7.18,-84.19 21.69,-121.13 14.51,-36.94 34.84,-69.24 61.31,-96.75 26.32,-27.37 57.42,-48.76 92.87,-63.85 35.59,-15.1 74.17,-22.73 115.74,-22.73 42.17,0 80.91,7.63 116.19,22.73 35.15,15.1 65.95,36.48 92.12,63.85 26.02,27.52 46.51,59.67 61.16,96.3 14.8,36.78 22.13,77.31 22.13,121.57 0,43.67 -7.33,84.19 -22.13,121.43 -14.65,37.38 -35.14,69.54 -61.16,96.75 -26.17,27.22 -56.97,48.3 -92.12,63.56 -35.29,15.1 -73.87,22.73 -115.44,22.73l-0.01 0zm-0.75 -116.19c23.93,0 45.76,-4.49 65.8,-13.31 20.19,-8.98 37.69,-21.98 52.94,-38.73 15.26,-16.9 27.07,-36.78 35.44,-59.81 8.37,-22.88 12.56,-48.45 12.56,-76.42 0,-28.11 -4.19,-53.53 -12.56,-76.56 -8.37,-23.03 -20.04,-42.92 -34.99,-59.67 -14.95,-16.9 -32.59,-29.76 -52.94,-38.73 -20.34,-8.97 -42.32,-13.46 -66.25,-13.46 -23.93,0 -45.76,4.49 -65.8,13.46 -20.04,8.98 -37.69,21.83 -52.94,38.73 -15.25,16.75 -27.07,36.64 -35.44,59.67 -8.37,23.03 -12.56,48.45 -12.56,76.56 0,27.52 4.19,52.79 12.56,76.12 8.37,23.18 20.04,43.22 34.99,60.11 14.95,16.75 32.6,29.76 52.94,38.73 20.34,8.82 42.32,13.31 66.25,13.31zm384.47 106.02l0 -588.74 102.14 0 314.48 423.94 -49.5 0 0 -423.94 121.73 0 0 588.74 -101.24 0 -315.23 -423.8 49.5 0 0 423.8 -121.88 0 -0 0z"/>
  </g>
  <path class="fil8" d="M4349.41 2090.39l39.18 0 0 186.92 -39.18 0 0 -186.92zm-76.86 186.92l-39.18 0 0 -186.92 39.18 0 0 186.92zm79.7 -76.71l-82.7 0 0 -36.48 82.7 0 0 36.48zm112.46 -35l81.5 0 0 33.64 -81.5 0 0 -33.64zm2.84 77.02l92.12 0 0 34.69 -131 0 0 -186.92 127.85 0 0 34.69 -88.98 0 0 117.54zm101.09 34.69l75.37 -186.92 38.73 0 75.67 186.92 -41.12 0 -61.91 -165.09 15.56 0 -62.21 165.09 -40.08 0 -0 0zm37.69 -40.08l10.47 -32.9 87.03 0 10.61 32.9 -108.12 0 0.01 0zm211.3 40.08l-72.97 -186.92 42.32 0 63.85 165.54 -24.98 0 64.75 -165.54 39.03 0 -73.28 186.92 -38.73 0 0 0zm165.54 0l0 -76.41 8.97 26.17 -74.47 -136.68 41.57 0 57.13 104.83 -23.93 0 57.28 -104.83 38.43 0 -74.47 136.68 8.67 -26.17 0 76.41 -39.18 0 -0 0zm225.8 -111.7l81.5 0 0 33.64 -81.5 0 0 -33.64zm2.99 77.02l92.12 0 0 34.69 -131.15 0 0 -186.92 127.85 0 0 34.69 -88.83 0 0 117.54zm205.17 37.83c-13.16,0 -25.57,-2.39 -36.79,-7.18 -11.37,-4.79 -21.24,-11.66 -29.61,-20.33 -8.22,-8.68 -14.65,-18.99 -19.29,-30.66 -4.63,-11.81 -6.88,-24.52 -6.88,-38.43 0,-13.91 2.24,-26.77 6.88,-38.43 4.63,-11.81 11.07,-21.98 19.44,-30.8 8.37,-8.68 18.24,-15.41 29.46,-20.19 11.37,-4.79 23.63,-7.33 36.79,-7.33 13.46,0 25.72,2.54 36.94,7.33 11.21,4.78 20.93,11.51 29.16,20.04 8.37,8.67 14.8,18.84 19.44,30.66 4.79,11.66 7.03,24.67 7.03,38.73 0,13.91 -2.24,26.77 -7.03,38.58 -4.63,11.81 -11.07,21.98 -19.44,30.66 -8.23,8.67 -17.94,15.4 -29.16,20.19 -11.22,4.79 -23.48,7.18 -36.94,7.18zm55.33 39.78c-6.58,0 -12.86,-0.75 -18.69,-2.39 -5.83,-1.65 -11.67,-4.19 -17.35,-7.78 -5.83,-3.59 -11.66,-8.37 -17.94,-14.35 -6.28,-6.13 -13.01,-13.61 -20.19,-22.43l41.12 -11.52c4.33,6.58 8.37,11.81 12.11,15.7 3.59,4.04 7.18,6.73 10.77,8.37 3.44,1.5 7.03,2.39 10.92,2.39 10.32,0 19.59,-4.63 27.52,-13.91l17.5 23.03c-11.52,15.26 -26.77,22.88 -45.76,22.88l0 -0zm-55.33 -76.56c7.63,0 14.51,-1.5 20.93,-4.33 6.43,-2.84 11.96,-6.88 16.75,-12.26 4.94,-5.38 8.68,-11.66 11.22,-19.14 2.69,-7.33 4.04,-15.4 4.04,-24.07 0,-8.98 -1.35,-17.05 -4.04,-24.38 -2.54,-7.33 -6.28,-13.61 -11.22,-18.99 -4.78,-5.24 -10.32,-9.42 -16.75,-12.26 -6.43,-2.84 -13.31,-4.19 -20.93,-4.19 -7.63,0 -14.51,1.35 -20.94,4.19 -6.58,2.84 -12.11,7.03 -16.9,12.26 -4.79,5.38 -8.37,11.66 -11.07,18.99 -2.69,7.33 -4.04,15.4 -4.04,24.38 0,8.67 1.35,16.75 4.04,24.07 2.69,7.48 6.28,13.76 11.07,19.14 4.79,5.38 10.32,9.42 16.9,12.26 6.43,2.84 13.31,4.33 20.94,4.33zm197.24 36.78c-23.93,0 -42.76,-7.33 -56.22,-22.13 -13.61,-14.8 -20.33,-35.89 -20.33,-63.26l0 -104.68 39.18 0 0 103.03c0,17.8 3.29,30.66 9.87,38.43 6.58,7.77 15.85,11.81 27.82,11.81 11.96,0 21.24,-4.04 27.81,-11.81 6.58,-7.78 9.87,-20.64 9.87,-38.43l0 -103.03 38.73 0 0 104.68c0,27.37 -6.88,48.45 -20.33,63.26 -13.61,14.8 -32.3,22.13 -56.37,22.13l-0.01 0zm115.3 -3.14l0 -186.92 39.18 0 0 186.92 -39.18 0zm79.26 0l0 -186.92 73.28 0c15.25,0 28.26,2.69 39.18,8.07 11.07,5.53 19.44,13.31 25.42,23.33 5.98,10.17 8.98,22.28 8.98,36.34 0,13.91 -2.99,26.02 -8.98,36.04 -5.98,10.17 -14.35,17.94 -25.42,23.48 -10.91,5.38 -23.93,8.07 -39.18,8.07l-51.44 0 17.5 -19.44 0 71.03 -39.33 0 0 0zm39.32 -66.24l-17.49 -20.64 49.35 0c12.11,0 21.08,-2.84 27.07,-8.52 5.98,-5.68 8.98,-13.61 8.98,-23.78 0,-10.32 -3,-18.24 -8.98,-23.93 -5.98,-5.68 -14.95,-8.52 -27.07,-8.52l-49.35 0 17.49 -20.63 0 106.02 0 -0zm135.34 66.24l0 -186.92 32.3 0 72.07 131.89 -17.2 0 70.88 -131.89 32.15 0 0.44 186.92 -36.64 0 -0.3 -124.71 6.73 0 -56.53 104.98 -17.65 0 -57.72 -104.98 8.23 0 0 124.71 -36.78 0zm266.78 -111.7l81.5 0 0 33.64 -81.5 0 0 -33.64zm2.99 77.02l92.11 0 0 34.69 -131 0 0 -186.92 127.86 0 0 34.69 -88.98 0 0 117.54zm123.22 34.69l0 -186.92 32.45 0 99.89 134.58 -15.7 0 0 -134.58 38.58 0 0 186.92 -32.15 0 -100.04 -134.58 15.7 0 0 134.58 -38.73 0 0.01 0zm230.44 0l0 -151.63 -54.13 0 0 -35.29 147.44 0 0 35.29 -54.13 0 0 151.63 -39.18 0zm182.74 0l0 -186.92 73.28 0c15.1,0 28.26,2.69 39.18,8.07 10.91,5.53 19.44,13.31 25.42,23.33 5.83,10.17 8.82,22.28 8.82,36.34 0,13.91 -3,25.87 -8.82,35.89 -5.98,10.17 -14.51,17.8 -25.42,23.18 -10.92,5.38 -24.08,7.93 -39.18,7.93l-51.44 0 17.35 -18.84 0 71.03 -39.18 0 -0.01 0zm107.52 0l-42.17 -67.89 41.72 0 42.76 67.89 -42.32 0 0.01 0zm-68.33 -66.24l-17.35 -20.34 49.2 0c12.11,0 21.24,-2.84 27.07,-8.67 5.98,-5.83 8.98,-13.76 8.98,-23.93 0,-10.32 -3,-18.24 -8.98,-23.93 -5.83,-5.68 -14.95,-8.52 -27.07,-8.52l-49.2 0 17.35 -20.64 0 106.03zm174.51 -45.46l81.5 0 0 33.64 -81.5 0 0 -33.64zm2.99 77.02l92.12 0 0 34.69 -131.15 0 0 -186.92 127.86 0 0 34.69 -88.83 0 0 117.54zm123.22 34.69l0 -186.92 32.45 0 99.74 134.58 -15.7 0 0 -134.58 38.73 0 0 186.92 -32.15 0 -100.04 -134.58 15.7 0 0 134.58 -38.73 0zm230.44 0l0 -151.63 -54.13 0 0 -35.29 147.44 0 0 35.29 -54.13 0 0 151.63 -39.18 0zm83.59 0l75.37 -186.92 38.73 0 75.67 186.92 -41.13 0 -61.91 -165.09 15.56 0 -62.21 165.09 -40.08 0 -0 0zm37.68 -40.08l10.47 -32.9 87.03 0 10.61 32.9 -108.12 0 0 0zm169.73 40.08l0 -186.92 39.18 0 0 151.63 84.79 0 0 35.29 -123.97 0z"/>
 </g>
 <g id="Layer_x0020_1_0">
  <metadata id="CorelCorpID_1Corel-Layer"/>
 </g>
</svg>
